<svg width="7729" height="1837" viewBox="0 0 7729 1837" fill="none" xmlns="http://www.w3.org/2000/svg">
<g clip-path="url(#clip0_170_2)">
<path d="M7634.09 0C7646.91 2.671 7662.64 4.00649 7681.28 4.00649C7701.08 4.00649 7716.81 2.671 7728.46 0L7120.31 971.588C7101.67 1003.64 7083.62 1033.69 7066.14 1061.74C7048.66 1089.78 7034.68 1114.49 7024.2 1135.86C7012.55 1155.89 7006.72 1171.92 7006.72 1183.93C7006.72 1193.28 7010.22 1199.96 7017.21 1203.97C7023.03 1207.97 7031.77 1209.98 7043.42 1209.98C7070.22 1209.98 7099.93 1199.29 7132.55 1177.93C7165.17 1155.22 7197.21 1127.18 7228.66 1093.79C7261.28 1060.4 7290.99 1027.68 7317.79 995.627C7345.75 963.575 7367.88 937.532 7384.19 917.499L7396.43 929.519C7381.28 948.216 7360.31 974.259 7333.52 1007.65C7306.72 1041.03 7275.85 1075.09 7240.9 1109.81C7207.11 1143.2 7171.58 1171.92 7134.29 1195.95C7098.18 1219.99 7062.64 1232.01 7027.69 1232.01C7009.05 1232.01 6993.33 1226 6980.51 1213.98C6966.53 1201.96 6959.54 1184.6 6959.54 1161.9C6959.54 1147.21 6964.2 1128.51 6973.52 1105.81C6982.84 1083.1 6994.49 1059.73 7008.47 1035.69C7021.29 1010.32 7034.1 987.614 7046.92 967.581C7058.57 946.213 7067.89 930.187 7074.88 919.503L7634.09 0Z" fill="black"/>
<path d="M6856.81 863.407C6852.15 874.091 6845.16 883.44 6835.84 891.453C6827.68 899.466 6821.27 904.808 6816.61 907.479C6813.12 908.815 6814.28 904.808 6820.11 895.46C6841.08 866.078 6854.48 838.7 6860.3 813.325C6867.29 787.951 6867.29 767.918 6860.3 753.227C6854.48 737.201 6842.83 729.188 6825.35 729.188C6802.05 729.188 6774.67 739.872 6743.22 761.24C6711.76 782.609 6679.14 810.654 6645.35 845.378C6612.73 880.101 6581.86 917.496 6552.73 957.561C6524.77 996.291 6502.06 1034.35 6484.58 1071.75C6467.1 1107.81 6458.37 1139.19 6458.37 1165.9C6458.37 1185.93 6461.86 1198.62 6468.85 1203.96C6475.84 1209.31 6482.83 1211.98 6489.82 1211.98C6516.62 1211.98 6547.49 1197.95 6582.44 1169.91C6618.56 1140.53 6655.26 1103.8 6692.54 1059.73C6729.82 1015.66 6765.35 970.916 6799.14 925.509C6832.93 878.766 6862.05 836.697 6886.52 799.302C6912.15 761.908 6929.62 736.533 6938.94 723.178C6951.76 728.52 6966.9 730.523 6984.38 729.188C7003.02 727.852 7018.75 726.517 7031.56 725.181C7029.23 729.188 7017 745.882 6994.86 775.263C6973.89 804.645 6948.26 840.036 6917.97 881.437C6888.85 921.502 6859.14 962.903 6828.85 1005.64C6799.72 1048.38 6775.26 1085.77 6755.45 1117.82C6735.64 1149.88 6725.74 1171.24 6725.74 1181.93C6725.74 1195.28 6728.07 1203.96 6732.73 1207.97C6738.56 1210.64 6747.3 1211.98 6758.95 1211.98C6772.93 1210.64 6793.31 1203.3 6820.11 1189.94C6846.91 1175.25 6881.27 1147.2 6923.22 1105.8C6965.16 1064.4 7015.84 1002.97 7075.25 921.502C7075.25 921.502 7077.58 923.505 7082.24 927.512C7088.07 931.519 7090.98 933.522 7090.98 933.522C7021.08 1027.01 6956.42 1100.46 6897 1153.88C6837.59 1205.97 6783.41 1232.01 6734.48 1232.01C6708.85 1232.01 6691.37 1227.34 6682.05 1217.99C6673.9 1208.64 6669.82 1195.28 6669.82 1177.92C6669.82 1164.57 6674.48 1148.54 6683.8 1129.84C6694.29 1109.81 6705.94 1090.45 6718.75 1071.75C6731.57 1053.05 6742.05 1038.36 6750.21 1027.68C6750.21 1027.68 6749.04 1027.01 6746.71 1025.67C6744.38 1024.34 6743.22 1023.67 6743.22 1023.67C6716.42 1061.06 6687.88 1095.79 6657.59 1127.84C6627.3 1159.89 6597.01 1185.27 6566.71 1203.96C6537.59 1222.66 6509.05 1232.01 6481.09 1232.01C6451.96 1232.01 6431.57 1224 6419.92 1207.97C6408.27 1190.61 6402.45 1164.57 6402.45 1129.84C6402.45 1096.45 6411.77 1056.39 6430.41 1009.65C6449.05 961.568 6475.84 914.825 6510.79 869.417C6545.74 822.674 6587.69 783.944 6636.62 753.227C6686.71 722.51 6742.64 707.152 6804.38 707.152C6834.67 707.152 6855.64 713.829 6867.29 727.185C6878.94 739.204 6884.19 753.895 6883.02 771.257C6881.86 788.618 6878.36 805.98 6872.54 823.342C6866.71 840.704 6861.47 854.059 6856.81 863.407Z" fill="black"/>
<path d="M6456.52 2.00146C6469.34 4.67246 6483.9 6.00796 6500.21 6.00796C6517.69 6.00796 6534 4.67246 6549.14 2.00146C6546.81 4.67246 6534.58 23.3697 6512.44 58.0931C6491.47 91.481 6463.51 136.221 6428.56 192.312C6393.61 248.404 6354.58 311.173 6311.47 380.62C6268.37 450.067 6223.51 522.185 6176.91 596.974C6130.31 670.427 6085.46 742.545 6042.35 813.328C5999.25 884.11 5959.63 948.882 5923.52 1007.65C5888.57 1065.07 5860.02 1112.48 5837.89 1149.88C5815.75 1187.27 5802.94 1209.31 5799.44 1215.99C5776.14 1206.64 5747.6 1207.97 5713.81 1219.99C5713.81 1219.99 5724.3 1203.3 5745.27 1169.91C5766.24 1135.19 5794.78 1089.11 5830.9 1031.68C5865.85 972.922 5904.88 907.481 5947.98 835.364C5992.26 763.246 6037.69 688.457 6084.29 610.997C6132.06 533.537 6177.5 458.748 6220.6 386.63C6264.87 314.512 6304.48 249.74 6339.44 192.312C6375.55 133.55 6404.09 87.4745 6425.07 54.0865C6446.04 19.3632 6456.52 2.00146 6456.52 2.00146ZM6411.09 775.265C6399.43 775.265 6388.95 771.259 6379.63 763.246C6371.47 755.233 6367.4 744.548 6367.4 731.193C6367.4 716.503 6371.47 705.818 6379.63 699.141C6388.95 692.463 6393.61 689.125 6393.61 689.125C6391.28 685.118 6386.62 683.115 6379.63 683.115C6372.64 681.779 6366.23 681.111 6360.41 681.111C6338.27 681.111 6316.72 693.131 6295.75 717.17C6274.78 739.874 6253.22 767.252 6231.09 799.305C6208.95 830.021 6185.07 857.399 6159.44 881.439C6133.81 904.143 6104.1 915.495 6070.31 915.495C6056.33 915.495 6044.68 914.159 6035.36 911.488C6027.21 907.481 6023.13 900.136 6023.13 889.452C6023.13 878.768 6030.12 870.755 6044.1 865.413C6059.25 858.735 6073.81 855.396 6087.79 855.396C6115.75 855.396 6140.22 861.406 6161.19 873.426C6183.32 884.11 6200.21 898.133 6211.86 915.495C6223.51 931.521 6229.34 948.882 6229.34 967.58C6229.34 995.625 6222.93 1021.67 6210.12 1045.71C6198.47 1068.41 6185.07 1089.11 6169.92 1107.81C6154.78 1126.51 6140.8 1143.2 6127.98 1157.89C6116.33 1171.25 6110.51 1181.93 6110.51 1189.94C6110.51 1196.62 6113.42 1201.96 6119.24 1205.97C6125.07 1208.64 6134.97 1209.98 6148.95 1209.98C6173.42 1209.98 6199.63 1201.29 6227.59 1183.93C6256.72 1165.24 6285.84 1141.2 6314.97 1111.82C6345.26 1082.43 6374.39 1051.05 6402.35 1017.66C6430.31 982.938 6455.36 949.55 6477.49 917.498L6491.47 931.521C6458.85 972.922 6422.15 1016.99 6381.38 1063.74C6341.77 1110.48 6300.99 1150.55 6259.05 1183.93C6217.11 1215.99 6176.33 1232.01 6136.72 1232.01C6116.91 1232.01 6100.02 1226.67 6086.04 1215.99C6073.23 1206.64 6066.82 1188.61 6066.82 1161.9C6066.82 1136.52 6072.64 1112.48 6084.29 1089.78C6095.94 1065.74 6109.34 1043.7 6124.49 1023.67C6139.63 1002.3 6153.03 984.273 6164.68 969.583C6176.33 954.892 6182.16 943.54 6182.16 935.527C6182.16 916.83 6174.58 904.81 6159.44 899.468C6144.29 894.126 6127.98 892.123 6110.51 893.458C6094.2 893.458 6083.13 893.458 6077.3 893.458C6069.15 893.458 6060.99 893.458 6052.84 893.458C6044.68 893.458 6040.6 892.123 6040.6 889.452C6040.6 885.445 6045.26 883.442 6054.58 883.442C6065.07 883.442 6072.64 883.442 6077.3 883.442C6108.76 883.442 6136.14 872.09 6159.44 849.386C6182.74 826.683 6204.87 800.64 6225.85 771.259C6247.98 740.542 6270.7 713.832 6294 691.128C6318.46 668.424 6347.59 657.072 6381.38 657.072C6402.35 657.072 6419.82 663.082 6433.8 675.102C6447.78 685.786 6454.77 701.144 6454.77 721.177C6454.77 737.203 6449.53 750.558 6439.05 761.242C6429.73 770.591 6420.41 775.265 6411.09 775.265Z" fill="black"/>
<path d="M5550.06 1232.01C5533.75 1232.01 5515.69 1226.67 5495.89 1215.99C5474.92 1206.64 5464.43 1190.61 5464.43 1167.91C5464.43 1139.86 5475.5 1104.47 5497.63 1061.73C5519.77 1019 5547.15 974.925 5579.77 929.517C5611.22 884.11 5642.1 841.373 5672.39 801.308C5702.68 761.242 5725.4 729.858 5740.54 707.154C5753.36 708.489 5768.5 709.157 5785.98 709.157C5804.62 709.157 5820.93 708.489 5834.91 707.154C5818.6 729.858 5797.05 758.571 5770.25 793.295C5744.62 828.018 5717.24 865.413 5688.12 905.478C5660.16 944.208 5632.78 982.27 5605.98 1019.66C5580.35 1057.06 5559.38 1090.45 5543.07 1119.83C5526.76 1149.21 5518.6 1170.58 5518.6 1183.93C5518.6 1193.28 5522.1 1199.96 5529.09 1203.97C5536.08 1207.97 5547.73 1209.98 5564.04 1209.98C5592 1209.98 5622.87 1197.96 5656.66 1173.92C5691.61 1148.54 5725.4 1118.49 5758.02 1083.77C5790.64 1049.05 5819.77 1016.33 5845.4 985.609C5871.03 953.557 5889.08 930.185 5899.57 915.494L5913.55 929.517C5903.07 942.872 5885.01 966.244 5859.38 999.632C5834.91 1031.68 5805.2 1065.74 5770.25 1101.8C5736.47 1137.86 5700.35 1168.57 5661.9 1193.95C5624.62 1219.32 5587.34 1232.01 5550.06 1232.01ZM5899.57 554.905C5885.59 554.905 5875.1 550.231 5868.11 540.882C5861.12 530.198 5857.63 518.178 5857.63 504.823C5857.63 490.132 5864.62 474.774 5878.6 458.748C5892.58 442.722 5907.14 434.708 5922.29 434.708C5938.6 434.708 5950.25 440.051 5957.24 450.735C5964.23 460.083 5967.72 469.432 5967.72 478.781C5967.72 498.813 5960.73 516.843 5946.75 532.869C5932.77 547.56 5917.05 554.905 5899.57 554.905Z" fill="black"/>
<path d="M5366.96 863.407C5362.3 874.091 5355.31 883.44 5345.99 891.453C5337.83 899.466 5331.42 904.808 5326.76 907.479C5323.27 908.815 5324.43 904.808 5330.26 895.46C5351.23 866.078 5364.63 838.7 5370.45 813.325C5377.44 787.951 5377.44 767.918 5370.45 753.227C5364.63 737.201 5352.98 729.188 5335.5 729.188C5312.2 729.188 5284.82 739.872 5253.37 761.24C5221.91 782.609 5189.29 810.654 5155.5 845.378C5122.88 880.101 5092.01 917.496 5062.88 957.561C5034.92 996.291 5012.2 1034.35 4994.73 1071.75C4977.25 1107.81 4968.52 1139.19 4968.52 1165.9C4968.52 1185.93 4972.01 1198.62 4979 1203.96C4985.99 1209.31 4992.98 1211.98 4999.97 1211.98C5026.77 1211.98 5057.64 1197.95 5092.59 1169.91C5128.71 1140.53 5165.41 1103.8 5202.69 1059.73C5239.97 1015.66 5275.5 970.916 5309.29 925.509C5343.07 878.766 5372.2 836.697 5396.67 799.302C5422.3 761.908 5439.77 736.533 5449.09 723.178C5461.91 728.52 5477.05 730.523 5494.53 729.188C5513.17 727.852 5528.9 726.517 5541.71 725.181C5539.38 729.188 5527.15 745.882 5505.01 775.263C5484.04 804.645 5458.41 840.036 5428.12 881.437C5399 921.502 5369.29 962.903 5339 1005.64C5309.87 1048.38 5285.4 1085.77 5265.6 1117.82C5245.79 1149.88 5235.89 1171.24 5235.89 1181.93C5235.89 1195.28 5238.22 1203.96 5242.88 1207.97C5248.71 1210.64 5257.44 1211.98 5269.09 1211.98C5283.07 1210.64 5303.46 1203.3 5330.26 1189.94C5357.05 1175.25 5391.42 1147.2 5433.36 1105.8C5475.3 1064.4 5525.98 1002.97 5585.4 921.502C5585.4 921.502 5587.73 923.505 5592.39 927.512C5598.22 931.519 5601.13 933.522 5601.13 933.522C5531.23 1027.01 5466.57 1100.46 5407.15 1153.88C5347.73 1205.97 5293.56 1232.01 5244.63 1232.01C5219 1232.01 5201.52 1227.34 5192.2 1217.99C5184.05 1208.64 5179.97 1195.28 5179.97 1177.92C5179.97 1164.57 5184.63 1148.54 5193.95 1129.84C5204.43 1109.81 5216.09 1090.45 5228.9 1071.75C5241.72 1053.05 5252.2 1038.36 5260.36 1027.68C5260.36 1027.68 5259.19 1027.01 5256.86 1025.67C5254.53 1024.34 5253.37 1023.67 5253.37 1023.67C5226.57 1061.06 5198.03 1095.79 5167.74 1127.84C5137.45 1159.89 5107.15 1185.27 5076.86 1203.96C5047.74 1222.66 5019.19 1232.01 4991.23 1232.01C4962.11 1232.01 4941.72 1224 4930.07 1207.97C4918.42 1190.61 4912.59 1164.57 4912.59 1129.84C4912.59 1096.45 4921.91 1056.39 4940.55 1009.65C4959.2 961.568 4985.99 914.825 5020.94 869.417C5055.89 822.674 5097.83 783.944 5146.77 753.227C5196.86 722.51 5252.78 707.152 5314.53 707.152C5344.82 707.152 5365.79 713.829 5377.44 727.185C5389.09 739.204 5394.34 753.895 5393.17 771.257C5392.01 788.618 5388.51 805.98 5382.68 823.342C5376.86 840.704 5371.62 854.059 5366.96 863.407Z" fill="black"/>
<path d="M4516.48 1232.01C4497.84 1232.01 4478.03 1224 4457.06 1207.97C4436.09 1191.95 4425.6 1165.24 4425.6 1127.84C4425.6 1069.08 4440.75 1004.31 4471.04 933.524C4502.5 861.406 4543.27 788.621 4593.37 715.167C4644.63 641.714 4700.55 570.932 4761.13 502.82C4822.88 434.709 4884.04 373.275 4944.63 318.519C5006.37 263.763 5062.88 221.026 5114.14 190.31C5166.56 158.257 5207.92 142.231 5238.21 142.231C5277.83 142.231 5297.63 160.928 5297.63 198.323C5297.63 218.355 5284.23 250.408 5257.44 294.48C5231.81 337.216 5189.28 385.295 5129.87 438.716C5070.45 492.136 4991.81 544.889 4893.95 596.974C4797.25 649.059 4677.25 695.135 4533.95 735.2C4467.54 753.897 4399.97 772.595 4331.24 791.292C4263.66 809.989 4199.59 830.69 4139.01 853.393C4079.59 876.097 4028.33 902.14 3985.22 931.521C3943.28 960.902 3914.15 995.626 3897.84 1035.69C3895.51 1042.37 3892.02 1045.04 3887.36 1043.7C3883.86 1042.37 3884.45 1036.36 3889.11 1025.67C3903.09 988.28 3931.05 954.893 3972.99 925.511C4016.09 894.794 4067.36 867.416 4126.77 843.377C4187.35 819.338 4252.01 797.302 4320.75 777.269C4389.49 755.901 4457.64 735.868 4525.21 717.171C4641.72 685.118 4741.91 647.724 4825.79 604.987C4910.84 560.915 4981.91 516.175 5038.99 470.768C5096.08 425.36 5141.52 382.624 5175.3 342.558C5210.25 301.157 5235.3 267.102 5250.45 240.391C5265.59 212.346 5273.17 194.984 5273.17 188.306C5273.17 169.609 5263.85 160.26 5245.21 160.26C5217.24 160.26 5182.29 174.951 5140.35 204.332C5099.58 233.714 5054.72 273.112 5005.79 322.526C4956.86 371.94 4906.76 427.364 4855.5 488.797C4805.4 550.231 4756.47 613.668 4708.71 679.108C4662.11 744.549 4620.16 807.986 4582.88 869.419C4545.6 930.853 4515.89 986.277 4493.76 1035.69C4472.79 1083.77 4462.3 1121.83 4462.3 1149.88C4462.3 1179.26 4468.13 1197.29 4479.78 1203.97C4492.59 1209.31 4506.57 1211.98 4521.72 1211.98C4549.68 1211.98 4578.81 1200.63 4609.1 1177.92C4639.39 1153.88 4667.93 1123.17 4694.73 1085.77C4722.69 1048.38 4745.99 1008.98 4764.63 967.58C4783.27 924.843 4795.5 885.446 4801.33 849.387C4803.66 838.703 4807.73 835.364 4813.56 839.37C4820.55 842.041 4823.46 854.729 4822.3 877.432C4821.13 906.814 4811.23 942.205 4792.59 983.606C4773.95 1023.67 4749.48 1062.4 4719.19 1099.8C4688.9 1137.19 4656.28 1168.57 4621.33 1193.95C4586.38 1219.32 4551.43 1232.01 4516.48 1232.01ZM3810.47 1232.01C3768.52 1232.01 3734.74 1223.33 3709.11 1205.97C3682.31 1187.27 3668.91 1161.23 3668.91 1127.84C3668.91 1110.48 3674.74 1095.79 3686.39 1083.77C3696.87 1070.41 3711.44 1063.74 3730.08 1063.74C3753.38 1063.74 3765.03 1074.42 3765.03 1095.79C3765.03 1111.82 3760.95 1122.5 3752.8 1127.84C3743.48 1133.18 3735.9 1135.85 3730.08 1135.85C3718.43 1135.85 3710.27 1134.52 3705.61 1131.85C3699.79 1129.18 3696.87 1127.84 3696.87 1127.84C3696.87 1141.2 3702.7 1158.56 3714.35 1179.93C3724.84 1199.96 3751.63 1209.98 3794.74 1209.98C3841.34 1209.98 3886.19 1195.29 3929.3 1165.9C3973.57 1135.19 4016.09 1095.12 4056.87 1045.71C4098.81 994.958 4139.59 940.202 4179.2 881.439C4219.97 821.341 4260.75 761.91 4301.53 703.148C4334.15 655.069 4369.1 606.323 4406.38 556.909C4443.66 507.495 4481.53 461.419 4519.97 418.683C4558.42 374.611 4594.53 337.884 4628.32 308.503C4637.64 300.49 4645.8 295.148 4652.79 292.477C4660.94 289.806 4663.85 291.809 4661.52 298.486C4660.36 302.493 4647.54 315.848 4623.08 338.552C4599.78 361.256 4570.07 386.63 4533.95 414.676C4497.84 442.722 4459.97 467.429 4420.36 488.797C4380.75 510.166 4344.63 520.85 4312.01 520.85C4286.38 520.85 4266.58 514.172 4252.6 500.817C4239.78 487.462 4233.37 468.765 4233.37 444.725C4233.37 414.008 4239.78 387.298 4252.6 364.594C4266.58 341.891 4281.72 322.526 4298.03 306.499C4315.51 290.473 4330.65 276.45 4343.47 264.431C4357.45 252.411 4364.44 240.391 4364.44 228.372C4364.44 209.675 4355.12 196.987 4336.48 190.31C4319 182.296 4298.03 178.29 4273.57 178.29C4228.13 178.29 4188.52 188.306 4154.73 208.339C4122.11 227.036 4098.81 245.733 4084.83 264.431C4077.84 272.444 4072.02 274.447 4067.36 270.441C4062.7 265.098 4062.7 259.756 4067.36 254.414C4073.18 246.401 4085.41 235.049 4104.05 220.359C4122.69 205.668 4146.58 192.313 4175.7 180.293C4204.83 166.938 4237.45 160.26 4273.57 160.26C4284.05 160.26 4298.61 162.264 4317.26 166.27C4337.06 168.941 4354.54 176.287 4369.68 188.306C4385.99 200.326 4394.15 221.026 4394.15 250.408C4394.15 286.467 4387.16 315.848 4373.18 338.552C4359.2 361.256 4343.47 379.953 4325.99 394.643C4308.52 407.999 4292.79 419.351 4278.81 428.699C4264.83 438.048 4257.84 448.732 4257.84 460.752C4257.84 470.1 4263.08 479.449 4273.57 488.797C4284.05 496.81 4299.2 500.817 4319 500.817C4351.62 500.817 4385.41 490.133 4420.36 468.765C4456.48 447.396 4492.01 420.686 4526.96 388.634C4563.08 356.581 4598.03 323.861 4631.81 290.473C4665.6 255.75 4696.47 225.701 4724.43 200.326C4753.56 173.616 4779.19 156.922 4801.33 150.244C4807.15 147.573 4811.23 147.573 4813.56 150.244C4817.05 151.58 4814.14 155.586 4804.82 162.264C4772.2 182.296 4736.09 217.02 4696.47 266.434C4658.03 314.513 4616.67 371.272 4572.4 436.712C4528.13 502.153 4481.53 570.932 4432.59 643.049C4384.83 715.167 4335.31 785.95 4284.05 855.397C4233.96 924.843 4182.69 988.28 4130.27 1045.71C4077.84 1101.8 4024.83 1147.21 3971.24 1181.93C3917.65 1215.32 3864.06 1232.01 3810.47 1232.01Z" fill="black"/>
<path d="M2908.05 705.15C2924.36 710.492 2941.26 713.164 2958.73 713.164C2976.21 711.828 2994.26 710.492 3012.91 709.157C2981.45 743.88 2945.92 785.281 2906.3 833.36C2867.86 880.103 2830.58 927.514 2794.46 975.592C2759.51 1022.34 2730.38 1064.4 2707.08 1101.8C2683.78 1137.86 2672.13 1162.56 2672.13 1175.92C2672.13 1185.27 2675.05 1193.95 2680.87 1201.96C2686.7 1208.64 2696.6 1211.98 2710.58 1211.98C2751.36 1211.98 2793.3 1197.96 2836.4 1169.91C2880.67 1141.86 2923.2 1106.47 2963.97 1063.74C3005.92 1019.66 3044.94 974.257 3081.06 927.514C3117.18 879.435 3148.63 836.031 3175.43 797.301C3203.39 757.236 3223.78 727.854 3236.59 709.157C3245.91 711.828 3261.06 713.164 3282.03 713.164C3304.16 713.164 3319.31 712.496 3327.46 711.16C3207.47 876.764 3102.03 1029.01 3011.16 1167.91C2921.45 1305.46 2840.48 1423.66 2768.25 1522.49C2696.02 1622.65 2627.28 1700.11 2562.04 1754.87C2495.63 1809.62 2426.31 1837 2354.08 1837C2309.81 1837 2287.67 1816.97 2287.67 1776.9C2287.67 1747.52 2303.98 1716.8 2336.6 1684.75C2368.06 1652.7 2410.58 1619.31 2464.17 1584.59C2517.77 1551.2 2577.18 1517.81 2642.42 1484.42C2707.67 1451.04 2774.07 1418.98 2841.65 1388.27C2930.19 1348.2 3003 1304.13 3060.09 1256.05C3118.34 1209.31 3169.02 1157.89 3212.13 1101.8C3256.4 1045.71 3301.25 984.273 3346.69 917.497L3360.67 927.514C3314.07 995.625 3268.05 1058.39 3222.61 1115.82C3177.18 1171.91 3125.33 1224 3067.08 1272.08C3008.83 1320.16 2935.43 1364.9 2846.89 1406.3C2780.48 1437.01 2715.82 1468.4 2652.91 1500.45C2588.83 1533.84 2531.16 1565.89 2479.9 1596.61C2427.48 1628.66 2386.12 1660.04 2355.83 1690.76C2324.37 1721.48 2308.64 1750.19 2308.64 1776.9C2308.64 1792.93 2313.3 1802.94 2322.62 1806.95C2331.94 1812.29 2344.18 1814.96 2359.32 1814.96C2395.44 1814.96 2434.47 1798.94 2476.41 1766.89C2517.18 1734.83 2560.29 1691.43 2605.73 1636.67C2651.16 1581.92 2697.18 1519.82 2743.78 1450.37C2791.55 1382.26 2839.9 1311.47 2888.83 1238.02C2937.76 1164.57 2987.27 1093.12 3037.37 1023.67L3030.38 1019.66C3028.05 1023.67 3019.9 1033.69 3005.92 1049.71C2991.93 1065.74 2973.88 1083.77 2951.74 1103.8C2929.61 1123.83 2904.56 1143.87 2876.6 1163.9C2848.64 1183.93 2818.93 1200.63 2787.47 1213.98C2757.18 1226 2726.31 1232.01 2694.85 1232.01C2672.72 1232.01 2655.82 1226 2644.17 1213.98C2631.36 1203.3 2624.95 1187.94 2624.95 1167.91C2624.95 1135.85 2634.27 1099.8 2652.91 1059.73C2671.55 1018.33 2696.02 976.26 2726.31 933.524C2755.43 890.787 2786.31 849.386 2818.93 809.321C2851.55 769.255 2881.26 734.532 2908.05 705.15Z" fill="black"/>
<path d="M2713.98 2.00146C2726.8 4.67246 2741.36 6.00796 2757.67 6.00796C2775.15 6.00796 2791.46 4.67246 2806.6 2.00146C2804.27 4.67246 2792.04 23.3697 2769.9 58.0931C2748.93 91.481 2720.97 136.221 2686.02 192.312C2651.07 248.404 2612.04 311.173 2568.94 380.62C2525.83 450.067 2480.98 522.185 2434.37 596.974C2387.77 670.427 2342.92 742.545 2299.81 813.328C2256.71 884.11 2217.1 948.882 2180.98 1007.65C2146.03 1065.07 2117.49 1112.48 2095.35 1149.88C2073.21 1187.27 2060.4 1209.31 2056.9 1215.99C2033.6 1206.64 2005.06 1207.97 1971.27 1219.99C1971.27 1219.99 1981.76 1203.3 2002.73 1169.91C2023.7 1135.19 2052.24 1089.11 2088.36 1031.68C2123.31 972.922 2162.34 907.481 2205.45 835.364C2249.72 763.246 2295.15 688.457 2341.75 610.997C2389.52 533.537 2434.96 458.748 2478.06 386.63C2522.33 314.512 2561.95 249.74 2596.9 192.312C2633.01 133.55 2661.56 87.4745 2682.53 54.0865C2703.5 19.3632 2713.98 2.00146 2713.98 2.00146ZM2668.55 775.265C2656.9 775.265 2646.41 771.259 2637.09 763.246C2628.94 755.233 2624.86 744.548 2624.86 731.193C2624.86 716.503 2628.94 705.818 2637.09 699.141C2646.41 692.463 2651.07 689.125 2651.07 689.125C2648.74 685.118 2644.08 683.115 2637.09 683.115C2630.1 681.779 2623.69 681.111 2617.87 681.111C2595.73 681.111 2574.18 693.131 2553.21 717.17C2532.24 739.874 2510.68 767.252 2488.55 799.305C2466.41 830.021 2442.53 857.399 2416.9 881.439C2391.27 904.143 2361.56 915.495 2327.77 915.495C2313.79 915.495 2302.14 914.159 2292.82 911.488C2284.67 907.481 2280.59 900.136 2280.59 889.452C2280.59 878.768 2287.58 870.755 2301.56 865.413C2316.71 858.735 2331.27 855.396 2345.25 855.396C2373.21 855.396 2397.68 861.406 2418.65 873.426C2440.78 884.11 2457.68 898.133 2469.33 915.495C2480.98 931.521 2486.8 948.882 2486.8 967.58C2486.8 995.625 2480.39 1021.67 2467.58 1045.71C2455.93 1068.41 2442.53 1089.11 2427.38 1107.81C2412.24 1126.51 2398.26 1143.2 2385.44 1157.89C2373.79 1171.25 2367.97 1181.93 2367.97 1189.94C2367.97 1196.62 2370.88 1201.96 2376.71 1205.97C2382.53 1208.64 2392.43 1209.98 2406.41 1209.98C2430.88 1209.98 2457.09 1201.29 2485.05 1183.93C2514.18 1165.24 2543.31 1141.2 2572.43 1111.82C2602.72 1082.43 2631.85 1051.05 2659.81 1017.66C2687.77 982.938 2712.82 949.55 2734.95 917.498L2748.93 931.521C2716.31 972.922 2679.61 1016.99 2638.84 1063.74C2599.23 1110.48 2558.45 1150.55 2516.51 1183.93C2474.57 1215.99 2433.79 1232.01 2394.18 1232.01C2374.38 1232.01 2357.48 1226.67 2343.5 1215.99C2330.69 1206.64 2324.28 1188.61 2324.28 1161.9C2324.28 1136.52 2330.1 1112.48 2341.75 1089.78C2353.4 1065.74 2366.8 1043.7 2381.95 1023.67C2397.09 1002.3 2410.49 984.273 2422.14 969.583C2433.79 954.892 2439.62 943.54 2439.62 935.527C2439.62 916.83 2432.04 904.81 2416.9 899.468C2401.75 894.126 2385.44 892.123 2367.97 893.458C2351.66 893.458 2340.59 893.458 2334.76 893.458C2326.61 893.458 2318.45 893.458 2310.3 893.458C2302.14 893.458 2298.07 892.123 2298.07 889.452C2298.07 885.445 2302.73 883.442 2312.05 883.442C2322.53 883.442 2330.1 883.442 2334.76 883.442C2366.22 883.442 2393.6 872.09 2416.9 849.386C2440.2 826.683 2462.34 800.64 2483.31 771.259C2505.44 740.542 2528.16 713.832 2551.46 691.128C2575.93 668.424 2605.05 657.072 2638.84 657.072C2659.81 657.072 2677.28 663.082 2691.26 675.102C2705.24 685.786 2712.24 701.144 2712.24 721.177C2712.24 737.203 2706.99 750.558 2696.51 761.242C2687.19 770.591 2677.87 775.265 2668.55 775.265Z" fill="black"/>
<path d="M1640 981.606C1659.81 961.573 1683.69 930.188 1711.65 887.452C1739.61 843.38 1763.5 795.969 1783.3 745.219L1799.03 763.249C1776.89 811.327 1751.85 856.735 1723.89 899.471C1695.92 942.208 1672.04 972.925 1652.24 991.622C1651.07 991.622 1648.74 990.286 1645.25 987.615C1640.59 984.944 1638.84 982.941 1640 981.606ZM1820 608.997C1829.32 608.997 1838.06 611 1846.21 615.006C1855.53 619.013 1860.19 625.691 1860.19 635.039C1860.19 655.072 1856.12 669.763 1847.96 679.111C1839.81 687.124 1831.65 694.47 1823.5 701.147C1815.34 707.825 1811.26 719.177 1811.26 735.203C1811.26 756.571 1821.75 781.278 1842.72 809.324C1863.69 836.034 1901.55 849.389 1956.31 849.389C1987.77 849.389 2019.8 843.38 2052.42 831.36C2085.05 818.005 2112.42 801.979 2134.56 783.281C2156.7 763.249 2167.76 743.884 2167.76 725.186C2167.76 718.509 2164.27 712.499 2157.28 707.157C2151.45 700.479 2141.55 697.141 2127.57 697.141C2100.77 697.141 2076.89 711.164 2055.92 739.209C2034.95 765.92 2015.73 799.308 1998.25 839.373C1981.94 879.439 1966.21 918.836 1951.07 957.566C1935.92 994.961 1920.78 1025.01 1905.63 1047.71C1871.84 1097.13 1842.14 1134.52 1816.51 1159.9C1792.04 1185.27 1768.74 1203.97 1746.6 1215.99C1725.63 1229.34 1705.24 1240.7 1685.44 1250.04C1665.63 1260.73 1644.08 1276.09 1620.78 1296.12C1616.12 1300.13 1610.29 1299.46 1603.3 1294.12C1595.15 1290.11 1592.82 1286.1 1596.31 1282.1C1600.97 1275.42 1612.04 1267.41 1629.52 1258.06C1646.99 1248.71 1661.56 1240.03 1673.21 1232.01C1700 1211.98 1723.3 1185.94 1743.11 1153.89C1762.91 1121.83 1780.39 1089.11 1795.53 1055.73C1810.68 1022.34 1823.5 994.293 1833.98 971.589C1854.95 927.517 1881.16 883.445 1912.62 839.373C1944.08 793.966 1977.86 756.571 2013.98 727.19C2051.26 696.473 2087.38 681.114 2122.33 681.114C2142.13 681.114 2158.44 685.121 2171.26 693.134C2184.07 699.812 2190.48 710.496 2190.48 725.186C2190.48 746.555 2178.83 767.923 2155.53 789.291C2133.39 810.659 2104.27 828.689 2068.15 843.38C2033.2 858.07 1995.92 865.416 1956.31 865.416C1901.55 865.416 1860.19 855.399 1832.23 835.367C1804.27 813.998 1785.05 790.627 1774.56 765.252C1765.24 738.542 1760.58 717.173 1760.58 701.147C1760.58 678.443 1766.41 657.743 1778.06 639.046C1790.87 619.013 1804.86 608.997 1820 608.997ZM2159.03 915.498L2173.01 927.517C2105.43 1031.69 2039.03 1116.49 1973.79 1181.93C1908.54 1246.04 1847.96 1294.12 1792.04 1326.17C1775.73 1335.52 1748.35 1352.21 1709.9 1376.25C1672.62 1400.29 1631.27 1428.34 1585.83 1460.39C1539.23 1492.44 1494.96 1526.5 1453.01 1562.56C1409.91 1599.95 1374.96 1636.68 1348.16 1672.74C1320.2 1708.79 1306.22 1741.51 1306.22 1770.9C1306.22 1800.28 1319.62 1814.97 1346.41 1814.97C1367.38 1814.97 1394.76 1804.28 1428.55 1782.92C1462.34 1761.55 1497.87 1732.17 1535.15 1694.77C1572.43 1658.71 1607.96 1617.31 1641.75 1570.57C1674.37 1525.16 1701.17 1477.75 1722.14 1428.34C1743.11 1380.26 1753.59 1333.51 1753.59 1288.11C1753.59 1264.07 1747.77 1248.04 1736.12 1240.03C1725.63 1233.35 1715.15 1230.01 1704.66 1230.01C1705.83 1230.01 1704.66 1228.68 1701.17 1226.01C1698.84 1224.67 1698.25 1222.67 1699.42 1220C1701.75 1218.66 1709.32 1217.99 1722.14 1217.99C1748.93 1217.99 1771.65 1228.68 1790.29 1250.04C1810.1 1271.41 1820 1307.47 1820 1358.22C1820 1391.61 1809.52 1429 1788.54 1470.4C1768.74 1513.14 1741.94 1555.21 1708.16 1596.61C1674.37 1639.35 1637.09 1678.74 1596.31 1714.8C1554.37 1750.86 1512.43 1779.58 1470.49 1800.94C1427.38 1823.65 1387.19 1835 1349.91 1835C1306.8 1835 1285.25 1813.63 1285.25 1770.9C1285.25 1738.84 1299.81 1704.12 1328.94 1666.73C1356.9 1629.33 1393.02 1591.27 1437.29 1552.54C1481.56 1515.14 1527.58 1479.75 1575.34 1446.37C1621.94 1412.98 1664.47 1383.6 1702.91 1358.22C1742.53 1334.18 1770.49 1317.49 1786.8 1308.14C1839.22 1277.42 1897.48 1230.68 1961.55 1167.91C2025.63 1105.14 2091.45 1021 2159.03 915.498Z" fill="black"/>
<path d="M1305.1 1232.02C1250.34 1232.02 1214.23 1217.99 1196.75 1189.95C1179.28 1160.57 1170.54 1129.85 1170.54 1097.8C1170.54 1043.04 1182.77 992.29 1207.24 945.547C1231.7 897.469 1263.16 854.732 1301.61 817.338C1340.05 779.943 1379.66 751.23 1420.44 731.197C1462.38 709.829 1499.66 699.145 1532.28 699.145C1555.58 699.145 1574.22 703.151 1588.2 711.164C1602.18 717.842 1609.17 732.532 1609.17 755.236C1609.17 776.604 1598.11 799.308 1575.97 823.348C1553.84 847.387 1525.87 870.758 1492.09 893.462C1458.3 914.83 1422.77 934.863 1385.49 953.56C1349.37 970.922 1316.17 984.945 1285.88 995.629C1255.59 1006.31 1233.45 1011.66 1219.47 1011.66C1219.47 1011.66 1219.47 1008.32 1219.47 1001.64C1219.47 993.626 1219.47 989.619 1219.47 989.619C1229.96 990.955 1248.01 986.948 1273.64 977.6C1300.44 968.251 1330.15 956.231 1362.77 941.541C1395.39 925.514 1426.85 907.485 1457.14 887.452C1488.59 867.42 1514.22 846.051 1534.03 823.348C1555 800.644 1565.49 778.608 1565.49 757.239C1565.49 746.555 1562.57 737.207 1556.75 729.194C1552.09 721.18 1543.35 717.174 1530.53 717.174C1511.89 717.174 1489.18 727.858 1462.38 749.226C1436.75 769.259 1410.54 795.969 1383.74 829.357C1356.94 862.745 1331.9 898.136 1308.6 935.531C1285.29 972.925 1266.07 1008.98 1250.93 1043.71C1236.95 1077.1 1229.96 1105.14 1229.96 1127.85C1229.96 1154.56 1236.95 1174.59 1250.93 1187.94C1264.91 1201.3 1285.29 1207.98 1312.09 1207.98C1358.69 1207.98 1402.38 1195.29 1443.16 1169.91C1485.1 1143.2 1522.96 1112.49 1556.75 1077.76C1590.53 1041.7 1619.08 1008.32 1642.38 977.6C1665.68 945.547 1681.41 924.847 1689.56 915.498C1689.56 915.498 1691.31 917.501 1694.8 921.508C1699.46 925.514 1701.79 927.518 1701.79 927.518C1693.64 938.202 1677.91 959.57 1654.61 991.622C1631.31 1023.67 1602.18 1058.4 1567.23 1095.79C1532.28 1133.19 1492.67 1165.24 1448.4 1191.95C1404.13 1218.66 1356.36 1232.02 1305.1 1232.02Z" fill="black"/>
<path d="M148.542 1232.01C89.1251 1232.01 49.5139 1220.66 29.7084 1197.96C9.90278 1175.25 0 1151.88 0 1127.84C0 1105.14 6.9902 1088.44 20.9706 1077.76C33.786 1067.08 46.6014 1061.73 59.4167 1061.73C83.8824 1061.73 96.1153 1073.75 96.1153 1097.79C96.1153 1108.48 92.6202 1117.83 85.63 1125.84C77.4748 1132.52 67.572 1135.86 55.9216 1135.86C47.7664 1135.86 40.7762 1134.52 34.951 1131.85C29.1258 1129.18 26.2133 1127.84 26.2133 1127.84C26.2133 1145.2 33.2035 1163.23 47.1839 1181.93C59.9992 1200.63 87.9601 1209.98 131.066 1209.98C178.833 1209.98 222.521 1195.29 262.133 1165.9C301.744 1135.19 339.607 1095.12 375.723 1045.71C413.004 994.958 450.868 939.534 489.314 879.436C527.76 818.002 569.119 756.568 613.39 695.135C644.846 652.398 681.545 603.652 723.486 548.896C766.592 494.14 813.776 440.719 865.038 388.634C917.464 335.213 972.803 288.47 1031.06 248.405C1089.31 207.004 1149.89 178.958 1212.8 164.267C1229.11 160.261 1237.27 161.596 1237.27 168.274C1237.27 174.951 1229.11 180.293 1212.8 184.3C1160.37 197.655 1109.11 226.369 1059.02 270.441C1008.92 314.513 958.823 368.601 908.726 432.706C859.795 495.475 810.864 562.919 761.932 635.037C713.001 707.154 664.069 778.604 615.138 849.387C566.206 920.169 516.11 984.274 464.849 1041.7C414.752 1099.13 363.491 1145.2 311.064 1179.93C258.638 1214.65 204.463 1232.01 148.542 1232.01ZM823.096 1232.01C773 1232.01 739.796 1221.33 723.486 1199.96C708.341 1177.26 700.768 1152.55 700.768 1125.84C700.768 1080.43 709.506 1041.03 726.981 1007.65C744.457 974.258 764.262 944.876 786.398 919.501C808.533 894.127 828.339 870.087 845.815 847.384C863.29 824.68 872.028 801.976 872.028 779.272C872.028 760.575 864.455 747.888 849.31 741.21C834.164 734.533 819.601 731.194 805.621 731.194C796.301 731.194 788.145 731.862 781.155 733.197C775.33 734.533 772.417 736.536 772.417 739.207C772.417 744.549 775.33 748.555 781.155 751.226C788.145 752.562 795.718 753.23 803.873 753.23C841.154 753.23 877.853 741.21 913.969 717.171C951.25 691.796 985.036 659.744 1015.33 621.014C1045.62 580.948 1070.08 538.879 1088.72 494.807C1107.36 450.735 1116.68 410.002 1116.68 372.608C1116.68 313.845 1091.05 266.434 1039.79 230.375C988.531 192.981 908.726 174.284 800.378 174.284C722.321 174.284 648.924 188.974 580.187 218.356C511.45 246.401 451.451 283.796 400.189 330.539C348.928 375.947 308.734 424.693 279.608 476.778C250.482 527.528 235.919 574.938 235.919 619.01C235.919 651.063 244.657 679.109 262.133 703.148C279.608 727.187 305.821 739.207 340.772 739.207C378.053 739.207 415.917 723.848 454.363 693.131C493.974 662.415 530.673 624.352 564.459 578.945C599.41 532.202 628.536 483.455 651.836 432.706C675.137 381.956 689.7 336.549 695.525 296.483C697.855 284.464 701.35 278.454 706.011 278.454C710.671 278.454 713.001 284.464 713.001 296.483C713.001 360.588 702.515 420.686 681.545 476.778C660.574 532.87 632.613 582.284 597.662 625.02C562.711 666.421 523.683 699.141 480.576 723.181C438.635 747.22 395.529 759.24 351.258 759.24C306.986 759.24 272.618 745.884 248.152 719.174C224.852 692.464 213.201 655.069 213.201 606.991C213.201 562.919 228.347 514.84 258.638 462.755C288.928 410.67 331.452 361.256 386.209 314.513C442.13 266.434 507.372 227.704 581.934 198.323C657.662 167.606 740.379 152.248 830.087 152.248C892.998 152.248 950.668 162.932 1003.09 184.3C1055.52 205.668 1097.46 237.721 1128.92 280.457C1161.54 323.194 1177.85 377.282 1177.85 442.722C1177.85 485.459 1165.62 526.86 1141.15 566.925C1117.85 605.655 1087.56 640.379 1050.28 671.095C1013 701.812 973.386 725.852 931.445 743.213C889.503 760.575 849.892 769.256 812.611 769.256C789.31 769.256 772.417 767.253 761.932 763.246C752.612 757.904 747.952 750.559 747.952 741.21C747.952 734.533 752.029 728.523 760.185 723.181C769.505 717.839 786.398 715.168 810.864 715.168C824.844 715.168 840.572 717.839 858.047 723.181C875.523 727.187 890.668 736.536 903.484 751.226C917.464 765.917 924.454 788.621 924.454 819.338C924.454 860.739 915.134 898.133 896.494 931.521C879.018 964.909 858.63 994.958 835.329 1021.67C812.029 1047.04 791.058 1071.08 772.417 1093.79C754.942 1115.15 746.204 1136.52 746.204 1157.89C746.204 1176.59 752.029 1189.94 763.68 1197.96C776.495 1205.97 792.223 1209.98 810.864 1209.98C844.65 1209.98 878.435 1199.29 912.221 1177.92C947.173 1155.22 979.793 1125.84 1010.08 1089.78C1040.38 1053.72 1065.42 1014.99 1085.23 973.59C1106.2 932.189 1119.02 891.456 1123.68 851.39C1126.01 836.699 1129.5 831.357 1134.16 835.364C1139.99 839.371 1143.48 848.051 1144.65 861.406C1149.31 893.459 1141.73 930.853 1121.93 973.59C1103.29 1014.99 1077.07 1055.72 1043.29 1095.79C1010.67 1134.52 974.551 1167.24 934.94 1193.95C896.494 1219.32 859.212 1232.01 823.096 1232.01Z" fill="black"/>
</g>
<defs>
<clipPath id="clip0_170_2">
<rect width="7729" height="1837" fill="white"/>
</clipPath>
</defs>
</svg>
